<?xml version="1.0" encoding="UTF-8" standalone="no"?>
<svg
   xmlns:dc="http://purl.org/dc/elements/1.1/"
   xmlns:cc="http://creativecommons.org/ns#"
   xmlns:rdf="http://www.w3.org/1999/02/22-rdf-syntax-ns#"
   xmlns:svg="http://www.w3.org/2000/svg"
   xmlns="http://www.w3.org/2000/svg"
   xmlns:sodipodi="http://sodipodi.sourceforge.net/DTD/sodipodi-0.dtd"
   xmlns:inkscape="http://www.inkscape.org/namespaces/inkscape"
   aria-hidden="true"
   focusable="false"
   data-prefix="fas"
   data-icon="fist-raised"
   class="svg-inline--fa fa-fist-raised fa-w-12"
   role="img"
   viewBox="0 0 512 512"
   version="1.1"
   id="svg4"
   sodipodi:docname="fist-raised-solide.svg"
   width="512"
   height="512"
   inkscape:version="0.92.3 (2405546, 2018-03-11)"
   inkscape:export-filename="/home/usuario7/Descargas/fist-raised-e.png"
   inkscape:export-xdpi="96"
   inkscape:export-ydpi="96">
  <metadata
     id="metadata10">
    <rdf:RDF>
      <cc:Work
         rdf:about="">
        <dc:format>image/svg+xml</dc:format>
        <dc:type
           rdf:resource="http://purl.org/dc/dcmitype/StillImage" />
        <dc:title></dc:title>
      </cc:Work>
    </rdf:RDF>
  </metadata>
  <defs
     id="defs8" />
  <sodipodi:namedview
     pagecolor="#ffffff"
     bordercolor="#666666"
     borderopacity="1"
     objecttolerance="10"
     gridtolerance="10"
     guidetolerance="10"
     inkscape:pageopacity="0"
     inkscape:pageshadow="2"
     inkscape:window-width="1024"
     inkscape:window-height="743"
     id="namedview6"
     showgrid="false"
     inkscape:zoom="0.65186406"
     inkscape:cx="334.13714"
     inkscape:cy="263.4663"
     inkscape:window-x="0"
     inkscape:window-y="25"
     inkscape:window-maximized="1"
     inkscape:current-layer="svg4" />
  <path
     style="fill:#000000;fill-opacity:1;stroke:none;stroke-width:18.6117115;stroke-miterlimit:4;stroke-dasharray:none;stroke-opacity:1"
     d="M 238.23091,-0.99767573 C 222.2536,0.12812682 203.85674,-3.8615724 190.23124,6.8777678 180.18675,14.876397 177.39884,28.541653 177.40479,40.756898 168.00743,30.130854 152.75371,27.381901 139.24714,29.035518 124.80098,28.490803 107.48354,28.277873 97.203577,40.25889 85.573175,53.831076 88.328544,73.058022 88.62656,89.527214 V 194.78517 c -22.357046,17.81064 -33.789751,47.89036 -29.556997,76.08081 0.751079,34.84181 -4.366418,70.87654 6.412316,104.69997 10.232185,27.04691 31.934713,47.39897 52.514471,66.7277 1.63558,7.8629 -0.67189,15.93321 0.40896,23.87716 v 46.8328 h 275.43514 v -70.26284 c 24.99897,-23.39758 49.56262,-51.03165 55.88965,-85.83198 7.43378,-37.01574 2.19179,-75.0746 3.28432,-112.36275 0.0177,-13.60441 -0.15948,-31.84835 0.26172,-51.50935 -0.84248,-37.09987 2.33509,-74.41518 -1.89752,-111.364926 -4.17078,-15.802881 -21.87651,-24.373215 -37.32701,-23.081067 -14.30263,0.817027 -30.12007,-2.231668 -42.81967,6.256006 -2.85664,1.588288 -5.76279,4.815685 -7.5501,6.708577 -0.78444,-11.042003 0.3254,-24.297805 -9.04959,-32.286956 -9.52405,-9.65896 -23.96409,-11.683478 -36.87445,-10.230988 -14.70256,-0.631237 -32.42911,-0.597468 -42.55247,11.944937 -2.00156,3.100958 -0.67659,-3.913739 -1.1705,-5.552615 -0.25331,-9.524003 -1.43257,-20.156353 -9.41309,-26.568944 -7.06808,-6.548833 -16.79278,-10.0281902 -26.39083,-9.85838973 z M 211.45477,17.932106 h 29.77874 c 8.22637,0 14.88937,6.662993 14.88937,14.889368 V 169.55212 c -4.67155,-1.65644 -9.6211,-2.72632 -14.8603,-2.72632 H 196.5654 V 32.821474 c 0,-8.226375 6.66299,-14.889368 14.88937,-14.889368 z m -89.32713,29.778737 h 29.77874 c 8.22638,0 14.88937,6.662992 14.88937,14.889369 V 166.8258 h -29.77874 c -10.497,0 -20.41705,2.15001 -29.77874,5.49081 V 62.600212 c 0,-8.226377 6.663,-14.889369 14.88937,-14.889369 z m 178.65426,0 h 29.77873 c 8.22638,0 14.88937,6.662992 14.88937,14.889369 V 211.4939 c 0,8.22638 -6.66299,14.88937 -14.88937,14.88937 H 300.7819 c -8.22638,0 -14.88937,-6.66299 -14.88937,-14.88937 V 62.600212 c 0,-8.226377 6.66299,-14.889369 14.88937,-14.889369 z m 89.32711,29.778738 h 29.77874 c 8.22638,0 14.88937,6.662992 14.88937,14.889368 V 211.4939 c 0,8.22638 -6.66299,14.88937 -14.88937,14.88937 h -29.77874 c -8.22637,0 -14.88937,-6.66299 -14.88937,-14.88937 V 92.378949 c 0,-8.226376 6.663,-14.889368 14.88937,-14.889368 z M 136.99885,196.60453 h 104.35643 c 8.17054,0 14.79667,6.57888 14.79667,14.74942 v 0.52164 c 0,24.44648 -19.82176,44.28642 -44.26823,44.28642 h -32.81224 c -9.00807,0 -12.28482,3.33149 -12.28482,7.44468 v 15.07476 c 0,3.99221 3.3416,7.23996 7.33381,7.44468 41.42967,2.12174 59.70529,22.9955 89.38165,67.51471 l 5.87252,8.8133 a 7.4391008,7.4391008 0 0 0 10.32004,2.06473 l 12.38661,-8.26257 a 7.4391008,7.4391008 0 0 0 2.06654,-10.32006 l -5.8725,-8.81329 c -14.63812,-21.96182 -28.10419,-40.25721 -44.0265,-54.04848 16.07121,-5.12753 29.22139,-16.86149 36.17286,-32.05795 6.13257,3.1733 12.99018,5.13639 20.35112,5.13639 h 29.77873 c 11.48342,0 21.85946,-4.47655 29.77873,-11.61413 7.9286,7.14689 18.30463,11.62323 29.77874,11.62323 h 29.77874 c 5.2485,0 10.20852,-1.06945 14.88937,-2.7445 v 72.52023 c 0,31.59338 -12.54451,61.88372 -34.88787,84.22708 l -24.66051,24.66961 v 59.55748 H 137.01701 V 434.87078 L 103.59954,401.44422 A 89.368783,89.368783 0 0 1 77.43227,338.24983 l 0.01817,-82.09692 c 0.0093,-32.88689 26.6708,-59.54838 59.5484,-59.54838 z"
     id="path870"
     inkscape:connector-curvature="0" />
</svg>
