<?xml version="1.0" standalone="no"?>
<!DOCTYPE svg PUBLIC "-//W3C//DTD SVG 20010904//EN"
 "http://www.w3.org/TR/2001/REC-SVG-20010904/DTD/svg10.dtd">
<svg version="1.0" xmlns="http://www.w3.org/2000/svg"
 width="435.000000pt" height="510.000000pt" viewBox="0 0 435.000000 510.000000"
 preserveAspectRatio="xMidYMid meet">
<metadata>
Created by potrace 1.15, written by Peter Selinger 2001-2017
</metadata>
<g transform="translate(0.000000,510.000000) scale(0.100000,-0.100000)"
fill="#CECECE" stroke="none">
<path d="M2128 5070 c-25 -3 -81 -23 -123 -44 -63 -33 -106 -68 -258 -214
-197 -189 -305 -283 -407 -354 -307 -214 -665 -322 -1143 -344 -150 -7 -177
-15 -177 -49 0 -31 43 -126 111 -245 191 -335 246 -452 269 -572 7 -38 16 -68
20 -68 4 0 58 11 121 25 460 103 1017 156 1634 157 634 1 1134 -52 1481 -157
45 -14 86 -25 92 -25 5 0 12 21 15 46 11 103 121 277 334 530 175 209 235 292
231 323 -3 26 -3 26 -123 33 -364 22 -604 79 -870 209 -211 102 -308 172 -630
447 -104 90 -220 184 -257 208 -119 79 -214 107 -320 94z m442 -967 c0 -258
-4 -270 -104 -368 -65 -64 -233 -181 -273 -192 -44 -10 -271 146 -341 235 -59
74 -62 90 -62 327 l0 215 390 0 390 0 0 -217z"/>
<path d="M1910 3114 c-471 -24 -886 -91 -1182 -191 -117 -39 -121 -44 -89 -97
20 -31 20 -32 0 -121 -11 -50 -27 -106 -36 -125 -9 -19 -18 -56 -21 -81 -4
-42 -7 -47 -50 -70 -64 -33 -155 -127 -198 -206 -77 -137 -117 -341 -94 -484
23 -149 87 -266 220 -399 97 -98 182 -161 280 -206 51 -23 57 -30 74 -77 150
-429 546 -801 1033 -971 255 -88 411 -88 666 0 478 167 857 516 1022 942 l29
73 81 39 c204 98 381 291 451 495 25 71 28 93 27 195 -2 210 -70 386 -197 514
-39 39 -87 80 -107 90 -33 18 -37 24 -43 72 -3 29 -13 65 -21 81 -8 15 -23 68
-34 117 -21 89 -21 89 -1 121 33 54 29 59 -87 98 -248 84 -542 139 -918 172
-166 15 -657 26 -805 19z m-715 -684 c177 -86 304 -133 473 -176 494 -125 982
-70 1480 166 67 33 150 75 183 96 33 20 62 35 64 33 6 -7 35 -315 35 -380 0
-88 29 -144 91 -177 56 -30 130 -27 178 7 l31 23 14 -34 c8 -18 19 -66 24
-106 18 -124 -18 -209 -135 -324 -62 -61 -178 -128 -221 -128 -43 0 -111 -39
-136 -79 -12 -20 -30 -67 -40 -106 -24 -93 -113 -274 -175 -356 -157 -206
-415 -385 -692 -481 -176 -60 -320 -41 -562 76 -193 93 -391 251 -508 405 -62
82 -143 243 -169 340 -37 133 -77 182 -161 197 -112 21 -286 158 -348 274 -28
52 -33 72 -33 126 1 78 18 166 38 193 2 2 17 -7 35 -20 46 -33 124 -37 176
-10 70 35 86 74 95 230 8 137 26 309 35 324 2 4 23 -4 46 -19 23 -14 105 -56
182 -94z"/>
<path d="M1433 2140 c-242 -50 -308 -372 -104 -513 189 -130 443 3 444 233 1
181 -163 316 -340 280z"/>
<path d="M2807 2140 c-214 -54 -294 -306 -148 -473 90 -102 265 -120 377 -38
176 130 148 404 -51 492 -51 22 -129 31 -178 19z"/>
</g>
</svg>
